<svg xmlns="http://www.w3.org/2000/svg" viewBox="0 0 33.16 33.16"><defs><style>.cls-1{fill:#ffd31a;opacity:0.8;}</style></defs><title>active_icon-orange</title><g id="ELEMENTS"><path class="cls-1" d="M298.88,139.59a16.58,16.58,0,1,0,16.58,16.58A16.58,16.58,0,0,0,298.88,139.59Zm8.86,18.15-6.14.65,2.95,5.81a1.14,1.14,0,0,1-.5,1.54,1.11,1.11,0,0,1-.52.13,1.15,1.15,0,0,1-1-.63l-3-5.84-4.35,4.73a1.12,1.12,0,0,1-1.67,0,1.14,1.14,0,0,1-.26-.73V148.19A1.72,1.72,0,0,1,296,146.8l12.3,9a1.13,1.13,0,0,1,.47.87A1.11,1.11,0,0,1,307.74,157.74Z" transform="translate(-282.3 -139.59)"/></g></svg>